<?xml version="1.0" encoding="UTF-8" standalone="no"?>
<svg
   xmlns:dc="http://purl.org/dc/elements/1.1/"
   xmlns:cc="http://creativecommons.org/ns#"
   xmlns:rdf="http://www.w3.org/1999/02/22-rdf-syntax-ns#"
   xmlns:svg="http://www.w3.org/2000/svg"
   xmlns="http://www.w3.org/2000/svg"
   xmlns:sodipodi="http://sodipodi.sourceforge.net/DTD/sodipodi-0.dtd"
   xmlns:inkscape="http://www.inkscape.org/namespaces/inkscape"
   viewBox="0 0 831.5 847"
   version="1.1"
   id="svg585"
   sodipodi:docname="car-battery.svg"
   width="831.5"
   height="847"
   inkscape:version="0.92.3 (2405546, 2018-03-11)">
  <metadata
     id="metadata591">
    <rdf:RDF>
      <cc:Work
         rdf:about="">
        <dc:format>image/svg+xml</dc:format>
        <dc:type
           rdf:resource="http://purl.org/dc/dcmitype/StillImage" />
      </cc:Work>
    </rdf:RDF>
  </metadata>
  <defs
     id="defs589" />
  <sodipodi:namedview
     pagecolor="#ffffff"
     bordercolor="#666666"
     borderopacity="1"
     objecttolerance="10"
     gridtolerance="10"
     guidetolerance="10"
     inkscape:pageopacity="0"
     inkscape:pageshadow="2"
     inkscape:window-width="1916"
     inkscape:window-height="1041"
     id="namedview587"
     showgrid="false"
     inkscape:zoom="0.6880406"
     inkscape:cx="840.55264"
     inkscape:cy="245.87714"
     inkscape:window-x="0"
     inkscape:window-y="18"
     inkscape:window-maximized="0"
     inkscape:current-layer="g583" />
  <g
     id="g583"
     style="fill-rule:evenodd"
     transform="translate(-203.5,0.5)">
    <path
       d="m 897,168 h 1 q 0,1 1,0 h 1 q 2,1 2,2 0,2 -1,2 -1,0 -1,1 0,1 -35,15 l -35,14 h -2 l -1,1 -1,1 h -2 v -1 h 1 v -1 h 1 v -2 l -1,-1 -1,-1 2,-1 1,-1 35,-14 q 34,-14 35,-14 z"
       id="path411"
       inkscape:connector-curvature="0"
       style="fill:#0b0b0b;stroke:#0b0b0b" />
    <path
       d="m 573,576 h -2 l -1,-1 q 0,-1 2,-1 2,-2 4,-2 h 1 v -1 q 0,-1 7,-3 6,-1 6,-22 0,-20 1,-20 1,0 1,34 0,34 -1,34 -1,0 -1,-12 0,-12 -4,-12 -4,0 -4,1 0,1 -4,2 -3,1 -3,2 0,1 -2,1 z"
       id="path413"
       inkscape:connector-curvature="0"
       style="fill:#0a0a0a;stroke:#0a0a0a" />
    <path
       d="m 736,83 v -1 h 2 l 4,4 q 5,4 14,6 9,2 28,2 18,0 19,-1 h 1 q 0,0 1,0 v 1 h 1 v 1 q 0,1 -1,1 h -1 q -1,0 -4,2 -2,0 -22,0 -20,0 -30,-4 l -10,-4 h -1 v -1 q -1,0 -2,-3 l -1,-2 h 1 v -1 z"
       id="path415"
       inkscape:connector-curvature="0"
       style="fill:#0b0b0b;stroke:#0b0b0b" />
    <path
       d="m 421,581 v 1 h 3 v 2 l 1,1 v 1 h -4 v -1 l -1,-1 v -2 h -1 q -1,0 -3,-1 -2,-1 -2,-2 0,-1 -3,-2 -3,-1 -3,-2 0,-1 -3,-2 -2,-1 -2,-2 0,-1 -1,-1 h -1 v -1 q 0,-1 -2,-1 -2,0 -2,-2 0,-2 1,0 0,1 3,2 3,1 3,2 0,1 4,2 5,2 5,3 0,1 1,1 1,0 1,1 0,1 2,1 2,0 2,1 0,1 1,1 1,0 1,1 z"
       id="path417"
       inkscape:connector-curvature="0"
       style="fill:#1a1a1a;stroke:#1a1a1a" />
    <path
       d="m 775,22 -7,-2 h -5 v -2 l 1,-1 v -1 h 1 v -1 h 1 v -1 h 3 l 1,-1 q 1,-1 4,-2 4,-1 16,-2 13,-1 16,0 2,1 3,3 1,2 -4,5 -5,3 -14,5 -9,2 -16,0 z"
       id="path419"
       inkscape:connector-curvature="0"
       style="fill:#f3f3f3;stroke:#f3f3f3" />
    <path
       d="m 686,245 v 1 q -1,2 0,2 2,1 1,1 0,1 0,1 0,0 -39,17 l -39,17 h -2 l -1,1 h -1 v -1 h -5 v -2 h 1 l 1,-1 2,-1 h 2 l 32,-14 q 32,-14 32,-15 h 2 q 1,-1 1,-1 h 3 l 4,-2 q 5,-2 6,-3 z"
       id="path421"
       inkscape:connector-curvature="0"
       style="fill:#0e0e0e;stroke:#0e0e0e" />
    <path
       d="m 400,281 v -1 h 4 v 1 h 1 v 1 h 1 q 0,0 1,-1 h 1 v 1 q 1,0 1,0 1,0 1,1 v 1 h 1 v -1 h 1 v 1 q 0,2 15,11 15,9 16,9 l 1,1 1,1 h 1 v 1 h 1 v 1 h -2 v 1 h -1 v 1 h -3 l -1,-1 -1,-1 h -1 l -1,-1 q -1,-1 -14,-8 -13,-8 -13,-9 0,-1 -2,-1 -1,0 -2,-1 0,0 -1,-1 l -1,-1 v -1 q 0,-1 0,-1 0,0 -1,-1 -1,-1 -2,-1 -1,0 -1,-1 z"
       id="path423"
       inkscape:connector-curvature="0"
       style="fill:#151515;stroke:#151515" />
    <path
       d="m 624,182 h -2 q 0,0 -1,0 h -1 q 0,0 -1,1 0,1 -2,1 -2,0 -4,2 l -2,2 h -1 q 0,0 0,1 h -1 q -1,1 -19,7 -17,8 -36,16 l -19,8 -1,1 h -1 v -2 h -2 v 1 l -1,1 v -5 h 1 l 1,-1 2,-1 36,-14 q 35,-16 36,-16 h 1 q 1,1 1,0 l 2,1 q 1,1 3,-1 2,-2 2,-3 1,0 1,-1 l 5,-2 q 5,-2 7,-2 2,0 2,2 -1,2 -3,2 -2,2 -3,2 z"
       id="path425"
       inkscape:connector-curvature="0"
       style="fill:#0e0e0e;stroke:#0e0e0e" />
    <path
       d="m 401,690 h -3 q 0,0 0,-1 -1,-1 -4,-2 -4,-2 -4,-3 0,-1 -1,-1 -1,-1 -2,-2 -1,-2 -3,-2 -1,-1 -2,-2 -1,-2 -2,-2 h -1 v -1 q 0,-1 -1,-1 -1,0 -2,-1 -1,-1 0,-1 -1,-1 0,-1 2,0 2,1 0,1 1,1 1,0 1,1 0,1 1,1 1,0 1,1 0,1 3,1 3,1 3,2 0,1 1,1 1,0 1,2 1,2 3,2 2,0 2,1 0,1 1,1 1,0 1,1 0,1 2,2 1,1 2,2 z"
       id="path427"
       inkscape:connector-curvature="0"
       style="fill:#191919;stroke:#191919" />
    <path
       d="m 772,0 4,1 h 4 v 2 h -2 l -2,1 h -3 l -1,1 c -0.66667,0.6666667 -1.66667,1 -3,1 -1.33333,0 -3.66667,1 -7,3 -3.33333,2 -5,3.666667 -5,5 -0.66667,0.666667 -1,5.333333 -1,14 -0.66667,9.333333 -11.33333,17 -32,23 -20,6 -39.33333,11.666667 -58,17 -18,5.333333 -73.33333,21.333333 -166,48 l -139,42 h -2 v -2 l -1,-1 v -7 c -0.66667,-4 -1.33333,-7.66667 -2,-11 0,-3.33333 -0.66667,-5 -2,-5 -0.66667,0 -1,-0.33333 -1,-1 0,-0.66667 -3.66667,-1.33333 -11,-2 -6.66667,-0.66667 -13.66667,0.33333 -21,3 -7.33333,2 -12.33333,5 -15,9 -2.66667,4 -4.33333,7.66667 -5,11 -0.66667,4 -1,9 -1,15 0,6 -10.66667,12.33333 -32,19 -20.66667,6.66667 -35,10.66667 -43,12 -8,1.33333 -13,2 -15,2 -2.66667,0.66667 -4,10.33333 -4,29 0.66667,18 0.66667,27.33333 0,28 -0.66667,0 -1.33333,2.33333 -2,7 0,4.66667 0.66667,8 2,10 1.33333,2.66667 2.33333,4 3,4 0.66667,0 1,0.33333 1,1 0,0.66667 1.33333,1.33333 4,2 2,0.66667 4.66667,41.33333 8,122 4,80.66667 6.66667,139 8,175 1.33333,36.66667 1.66667,57 1,61 -0.66667,3.33333 26.33333,27.66667 81,73 54,45.33333 93.33333,78.66667 118,100 24,20.66667 36.66667,31.66667 38,33 1.33333,0.66667 3,1 5,1 2,0 4,-1 6,-3 2,-2 30,-17.66667 84,-47 54,-28 122.66667,-64 206,-108 83.33333,-44 145,-76 185,-96 39.33333,-20 59.3333,-30.33333 60,-31 0.6667,0 1,-0.33333 1,-1 0,-0.66667 1,-1.66667 3,-3 1.3333,-1.33333 2.6667,-3.66667 4,-7 v -18 -34 c 0,-14.66667 -0.6667,-23.33333 -2,-26 l -4,-8 c -1.3333,-2 -2,-4.33333 -2,-7 0,-2.66667 1.3333,-5 4,-7 2.6667,-2.66667 4.3333,-10.66667 5,-24 0.6667,-14 1,-26 1,-36 -1.3333,-10.66667 -2,-17.33333 -2,-20 0,-2.66667 0.6667,-6 2,-10 v -15 c 0,-6 -0.6667,-9.66667 -2,-11 -1.3333,-1.33333 -1.3333,-3.33333 0,-6 0,-2.66667 -0.6667,-5.33333 -2,-8 -1.3333,-2.66667 -2,-4.66667 -2,-6 0,-2 0.3333,-3 1,-3 0.6667,0 1,-0.66667 1,-2 l 2,-2 c 1.3333,0 2,-2 2,-6 v -28 -41 c 0,-13.33333 1,-21.33333 3,-24 l 4,-4 c 0.6667,0 1.3333,-0.33333 2,-1 0,-0.66667 0.3333,-1 1,-1 0.6667,0 0.6667,-11.66667 0,-35 0,-23.33333 -1,-36 -3,-38 -1.3333,-2 -27,-12.66667 -77,-32 C 903.33333,77.666667 871.33333,65 858,59 L 833,49 c -3.33333,-2 -6.33333,-3 -9,-3 -2,0 -3,-2 -3,-6 -0.66667,-3.333333 -1,-8 -1,-14 0,-6 -0.33333,-9.333333 -1,-10 -1.33333,-0.666667 -2.33333,-2.333333 -3,-5 -0.66667,-3.3333333 -1.33333,-5 -2,-5 V 5 h -1 V 4 h -1 l -2,-1 h -1 V 1 h 7 l 7,-1 z"
       id="path429"
       inkscape:connector-curvature="0"
       style="fill:#fdfdfd;stroke:#fdfdfd"
       sodipodi:nodetypes="cccccccssscccccccccccssccscscscccccsscccccccsscsccscccsscscccscsscsssccscscccscccccscsccccccccccccc" />
    <path
       d="m 346,649 h -2 v -1 q 0,-1 -1,-1 -1,0 -1,-1 0,-1 -2,-2 -2,-1 -2,-2 0,-1 -1,-1 -1,-1 1,0 3,0 4,1 0,2 0,2 1,1 3,1 2,0 3,2 0,2 1,2 1,0 1,1 0,1 -2,1 -1,0 -1,-1 0,-1 -1,-1 z"
       id="path431"
       inkscape:connector-curvature="0"
       style="fill:#1d1d1d;stroke:#1d1d1d" />
    <path
       d="m 308,216 v -1 h -1 v -1 h -1 v -2 l -1,-2 -1,-1 v -2 l 1,-1 1,-1 v -1 h 3 l 1,1 1,1 5,2 q 5,2 16,2 10,0 18,-2 7,-2 8,-4 1,0 3,0 1,0 -1,5 -2,5 -7,7 -4,2 -4,3 0,1 -3,1 -3,0 -4,2 -2,0 -11,2 -9,0 -15,-2 -6,-4 -7,-5 -1,-1 -1,-1 z"
       id="path433"
       inkscape:connector-curvature="0"
       style="fill:#f1f1f1;stroke:#f1f1f1" />
    <path
       d="m 504,697 h -1 v 1 h -2 v -1 h -1 v -2 h 3 v -2 h 2 q 2,0 2,-1 0,-1 7,-2 6,-2 6,-3 0,-1 6,-3 5,-1 5,-2 0,-1 1,0 1,1 0,1 -1,0 -2,1 -1,1 -2,1 -1,0 -4,1 -3,1 -3,2 0,1 -2,1 -2,0 -2,1 0,1 -1,1 -2,0 -2,1 0,1 -2,1 -2,0 -2,1 0,1 -3,2 -3,0 -3,1 z"
       id="path435"
       inkscape:connector-curvature="0"
       style="fill:#1b1b1b;stroke:#1b1b1b" />
    <path
       d="m 746,124 h 2 v 1 l -1,1 v 1 h 1 l 1,1 h 3 q 0,0 -16,8 l -17,7 q 0,-1 -1,-1 -2,-1 -1,-2 1,-1 0,-2 h -1 v -1 h 1 v -1 h 2 l 13,-6 q 13,-6 14,-6 z"
       id="path437"
       inkscape:connector-curvature="0"
       style="fill:#121212;stroke:#121212" />
    <path
       d="m 416,281 h 1 v 1 h 2 l 3,1 q 2,1 3,2 0,1 3,3 2,1 27,16 25,16 27,16 h 1 v 1 h 1 v 1 h 1 v 1 h 1 v 5 h -1 v 1 h -1 v -1 h -2 l -1,-1 -1,-1 h -2 v -1 q 0,0 -4,-2 l -4,-2 v -1 h -2 l -1,-1 h -1 q 0,-1 -10,-6 l -9,-6 h -1 v -1 h -1 l -1,-1 -1,-1 q -1,0 -16,-9 -15,-9 -15,-11 v -1 h -1 v 1 h -1 v -1 q 0,-1 -1,-1 0,0 -1,0 v -3 q 0,-1 4,0 3,1 4,2 z"
       id="path439"
       inkscape:connector-curvature="0"
       style="fill:#ececec;stroke:#ececec" />
    <path
       d="m 461,794 v 19 h -1 l -1,-1 h -1 v -1 h -1 v -1 h -1 v -1 h -1 v -1 h -1 q -1,0 -4,-4 -4,-4 -25,-22 -21,-18 -67,-57 -45,-39 -46,-39 -1,0 -1,-1 0,-1 -7,-7 -8,-6 -26,-22 -20,-17 -25,-152 -5,-136 -7,-166 0,-30 0,-30 1,0 101,62 100,62 101,62 0,1 2,37 2,36 4,107 2,72 3,85 1,13 2,63 1,50 2,70 z m -163,-367 -1,-1 h -2 v -1 q 0,-1 -1,-1 -1,0 -1,-1 0,-1 -3,-1 -3,0 -3,-1 0,-1 -1,-1 -1,0 -1,-1 0,-1 -2,-1 -2,0 -3,-2 0,-2 -1,-2 -1,-1 1,-2 1,0 2,1 1,1 2,1 1,0 2,1 0,1 0,2 1,1 2,1 2,0 2,1 0,1 2,1 2,0 2,1 0,1 1,1 1,0 1,1 0,1 3,2 3,1 3,3 0,1 -1,1 -1,0 -1,-1 0,-1 -2,-1 z m 133,141 h 1 -4 l -2,-1 h -3 v -1 q 0,-1 -2,-1 -2,0 -2,-1 0,-1 -1,-1 -1,0 -1,-1 0,-1 -5,-2 -4,-2 -6,-5 -1,-3 0,-3 2,0 3,2 1,2 5,3 5,2 6,3 1,2 2,3 1,1 4,1 4,1 4,2 0,2 1,2 z m -10,13 v 1 h 3 v 2 l 1,1 v 1 h -4 v -1 l -1,-1 v -2 h -1 q -1,0 -3,-1 -2,-1 -2,-2 0,-1 -3,-2 -3,-1 -3,-2 0,-1 -3,-2 -2,-1 -2,-2 0,-1 -1,-1 h -1 v -1 q 0,-1 -2,-1 -2,0 -2,-2 0,-2 1,0 0,1 3,2 3,1 3,2 0,1 4,2 5,2 5,3 0,1 1,1 1,0 1,1 0,1 2,1 2,0 2,1 0,1 1,1 1,0 1,1 z m -13,11 -3,-2 -3,-2 q -2,-1 -2,-2 -1,0 -4,-3 -4,-3 -5,-3 -1,0 -1,-1 0,-1 -1,-1 -1,0 -1,-1 0,-1 2,-1 1,0 1,1 0,1 2,1 2,0 2,1 0,1 1,1 1,0 1,1 0,1 1,1 1,0 1,1 0,1 3,2 2,1 2,2 0,1 4,3 4,2 4,3 0,1 -4,-1 z m -62,57 h -2 v -1 q 0,-1 -1,-1 -1,0 -1,-1 0,-1 -2,-2 -2,-1 -2,-2 0,-1 -1,-1 -1,-1 1,0 3,0 4,1 0,2 0,2 1,1 3,1 2,0 3,2 0,2 1,2 1,0 1,1 0,1 -2,1 -1,0 -1,-1 0,-1 -1,-1 z m 53,39 v 1 h 1 q 1,1 1,1 h 1 q 1,0 1,1 0,1 1,1 2,0 2,2 1,2 2,2 2,0 3,2 1,1 1,2 h 2 q 1,1 2,2 0,2 4,4 3,2 3,2 h 1 q 2,1 2,2 0,1 1,1 1,0 1,1 0,1 2,1 2,0 2,1 v 1 h 1 v 1 h 1 l 1,1 1,1 h 1 v 1 h 1 v 3 h -1 v -1 h -1 v -1 h -2 v -2 h -2 l -2,-1 q -1,0 -1,-1 0,-1 -1,-1 -1,-1 -2,-2 -1,-2 -3,-2 -2,0 -3,-1 v -1 q 0,0 -1,-1 0,-1 -1,-1 -2,-1 -5,-4 l -3,-3 q 0,0 -4,-2 -3,-2 -3,-3 0,-1 -1,-1 -1,0 -1,-1 0,-1 -1,-1 -1,0 -1,-1 v -1 h -1 q 0,0 0,-1 -1,-1 -4,-2 -4,-2 -4,-3 0,-1 -1,-1 -1,-1 -2,-2 -1,-2 -3,-2 -1,-1 -2,-2 -1,-2 -2,-2 h -1 v -1 q 0,-1 -1,-1 -1,0 -2,-1 -1,-1 0,-1 -1,-1 0,-1 2,0 2,1 0,1 1,1 1,0 1,1 0,1 1,1 1,0 1,1 0,1 3,1 3,1 3,2 0,1 1,1 1,0 1,2 1,2 3,2 2,0 2,1 0,1 1,1 1,0 1,1 0,1 1,1 1,0 1,1 z"
       id="path443"
       inkscape:connector-curvature="0"
       style="fill:#f2f2f2;stroke:#f2f2f2" />
    <path
       d="m 700,239 h -2 q -1,1 -6,3 l -6,3 q -1,1 -6,3 l -4,2 h -2 l -2,1 h -3 v -1 h 3 l 1,-1 1,-1 h 3 v -3 q -1,-3 9,-7 9,-4 12,-5 4,-1 4,2 0,3 -1,3 -1,0 -1,1 z"
       id="path445"
       inkscape:connector-curvature="0"
       style="fill:#e7e7e7;stroke:#e7e7e7" />
    <path
       d="m 708,154 v -1 h 1 l 1,1 h 1 v 1 h 1 v 1 h 1 l 1,1 h 1 v 1 q 0,1 9,7 8,7 8,7 h 1 v 1 h 1 v 1 h 1 l 20,16 q 20,16 20,17 h 1 v 5 l 1,1 1,1 v 2 h 1 -3 l -1,-1 -1,-1 h -1 v -1 h -1 v -1 h -1 q 0,0 -3,-2 l -3,-2 v -1 h -1 v -1 h -1 l -1,-1 -1,-1 h -1 v -1 h -1 v -1 h -1 q -1,0 -24,-17 l -22,-17 q 0,-1 -1,-1 v -1 q -1,0 -1,0 v -2 q 0,-3 -1,-6 l -1,-2 z"
       id="path447"
       inkscape:connector-curvature="0"
       style="fill:#f1f1f1;stroke:#f1f1f1" />
    <path
       d="m 706,169 -2,-3 2,1 q 2,1 2,0 1,-1 2,-1 0,0 1,0 v 1 q 1,0 1,1 l 22,17 q 23,17 24,17 h 1 v 1 h 1 v 1 h 1 l 1,1 1,1 h 1 v 1 h -1 l -1,-1 h -3 l -1,1 -1,1 h -1 l -1,-1 -1,-1 q 0,0 -23,-17 -22,-17 -25,-20 z"
       id="path449"
       inkscape:connector-curvature="0"
       style="fill:#121212;stroke:#121212" />
    <path
       d="m 926,140 h 2 v 1 h -1 v 1 h -1 v 2 h 3 v -1 h 1 v 1 q 0,1 -45,19 l -45,19 h -3 v -1 h -1 v 1 h -1 v 1 h -1 v -1 h -2 v -1 h 1 v -1 h 1 v -1 l 1,-1 h 1 v -1 h 1 l 1,-1 44,-18 q 43,-18 44,-18 z"
       id="path451"
       inkscape:connector-curvature="0"
       style="fill:#0d0d0d;stroke:#0d0d0d" />
    <path
       d="m 408,592 -3,-2 -3,-2 q -2,-1 -2,-2 -1,0 -4,-3 -4,-3 -5,-3 -1,0 -1,-1 0,-1 -1,-1 -1,0 -1,-1 0,-1 2,-1 1,0 1,1 0,1 2,1 2,0 2,1 0,1 1,1 1,0 1,1 0,1 1,1 1,0 1,1 0,1 3,2 2,1 2,2 0,1 4,3 4,2 4,3 0,1 -4,-1 z"
       id="path453"
       inkscape:connector-curvature="0"
       style="fill:#1b1b1b;stroke:#1b1b1b" />
    <path
       d="m 436,255 h 2 l 1,1 h 1 v 1 h -1 v 1 h -1 v 1 q -1,1 -1,2 h -1 q 0,1 0,1 -1,0 -6,2 l -5,2 v 1 h -1 v 1 h -1 l -1,1 h -1 v -1 q 0,0 1,-1 v -1 q -1,0 -1,-2 v -2 l 7,-3 q 6,-3 8,-4 z"
       id="path455"
       inkscape:connector-curvature="0"
       style="fill:#171717;stroke:#171717" />
    <path
       d="m 730,67 h 2 v 2 q 0,2 1,7 l 1,6 v 2 l 1,2 q 1,3 2,3 v 1 h 1 l 10,4 q 10,4 30,4 20,0 22,0 3,-2 4,-2 h 2 q 0,0 0,1 h 1 v 1 h 1 l 1,-1 1,-1 h 2 l 1,-1 1,-1 6,-4 q 6,-4 10,-12 4,-8 4,-10 v -1 h 1 v 1 l 26,11 q 27,12 27,11 0,-1 1,-1 1,0 1,1 -1,2 16,8 17,8 26,11 10,3 20,7 9,4 9,5 0,1 3,1 2,0 3,1 0,1 17,9 18,8 20,8 h 1 l 1,1 1,1 h 3 v 2 h -1 l -1,1 -2,1 h -3 l -1,1 q -1,1 -120,46 -120,45 -196,74 -75,29 -90,35 -16,6 -26,9 -10,3 -10,4 0,1 -51,19 -51,18 -58,20 -7,0 -7,-1 -1,-2 -6,-5 -6,-4 -103,-65 l -97,-61 v -1 h -1 v -1 h -1 l -1,-1 -1,-1 h -1 v -1 h 1 v -1 h 5 l 25,-8 q 24,-8 26,-9 l 2,-1 h 2 l 2,-1 h 1 v 1 l -1,1 v 1 l -2,2 q 0,3 0,11 2,8 2,9 0,1 10,7 9,5 23,5 14,0 24,-6 10,-8 14,-12 3,-5 3,-12 0,-8 -2,-12 -3,-4 -6,-3 -2,0 -3,-5 l -1,-4 v -1 h 1 v -1 l 36,-10 Q 431,158 580,112 728,68 730,67 Z m 117,24 40,19 q 40,18 41,19 l 1,1 h 2 l 1,1 1,1 h 1 q 0,0 3,1 3,1 3,4 0,2 4,7 2,4 2,8 -1,4 -24,12 l -22,9 q 0,1 -35,15 l -35,14 h -2 l -1,1 -1,1 h -3 l -1,1 -1,1 h -1 q -2,0 -19,7 -17,7 -17,9 0,2 -3,2 -3,0 -10,-5 l -7,-6 h -1 v -1 h -2 v -1 h -1 v -1 h -2 v -1 h -1 v -1 h -1 l -1,-1 -1,-1 q 0,0 -24,-19 l -24,-19 q -1,0 -1,-1 h -1 q 0,-1 0,-1 v -1 h 1 v -1 h 1 v -1 l -1,-4 q -1,-4 -1,-6 0,-2 0,-6 l 1,-5 h 1 l 4,-2 q 4,-2 5,-3 h 2 v -1 h 2 l 13,-6 q 13,-6 14,-6 h 2 l 1,-1 1,-1 h 3 l 27,-12 q 27,-10 28,-11 h 2 v -1 h 2 l 1,-1 1,-1 h 3 l 11,-5 q 11,-5 15,-3 4,2 4,3 z m -146,9 -18,8 h -3 v -3 h -1 v -1 h 2 l 1,-1 1,-1 h 2 l 1,-1 q 2,-1 14,-5 13,-6 16,-6 3,0 3,2 0,2 -18,8 z m -77,82 h -1 q -1,1 -6,4 l -6,2 q -1,1 -1,1 h -1 q -1,1 -19,7 -17,8 -36,16 l -19,8 -1,1 h -1 q 0,1 -11,5 -11,4 -22,8 l -10,4 q 0,0 -3,2 -3,1 -26,11 l -22,9 -1,1 h -1 v 1 q -1,0 -1,0 -1,0 -6,2 l -5,2 v 1 h -1 v 1 h -1 l -1,1 h -2 v 3 h 1 v 1 h 1 v 1 h 2 l 33,18 q 33,18 35,18 2,1 6,1 4,-1 5,-1 h 1 l 2,-1 1,-1 91,-39 q 92,-39 93,-40 l 1,-1 h 2 l 1,-1 1,-1 h 1 v -1 h -1 v -1 h -1 l -1,-1 -1,-1 h -1 q 0,0 -8,-6 l -9,-6 v -1 h -1 v -1 h -1 q 0,0 -1,-1 l -1,-1 h -1 v -1 h -1 v -1 h -2 v -1 h -1 v -1 q 0,0 -14,-10 l -14,-10 v -1 h -1 v -1 h -1 v -1 h -1 v -1 h -1 v -2 h -1 6 l 1,1 h 1 v 2 l 15,11 q 16,10 17,11 l 1,1 15,10 q 15,10 15,11 h 2 q 2,0 1,11 -1,10 -2,10 0,0 -7,2 l -6,2 -1,1 q -1,1 -3,1 h -1 q 0,0 -39,17 l -39,17 h -2 l -1,1 h -2 q 0,1 -26,12 l -27,11 -1,1 -1,1 h -3 l -1,1 -1,1 h -2 l -2,1 q -1,1 -23,11 -22,10 -28,10 -6,2 -13,-3 l -8,-5 h -2 l -1,-1 -1,-1 h -1 v -1 h -1 q -1,-1 -7,-5 l -7,-4 -1,-1 -1,-1 h -1 q -1,0 -1,-1 l -1,-1 h -2 l -1,-1 -1,-1 h -1 l -1,-1 q -1,-1 -14,-8 -13,-8 -13,-9 0,-1 -2,-1 -1,0 -2,-1 0,0 -1,-1 l -1,-1 v -1 q 0,-1 0,-1 0,0 -2,-1 l -1,-2 h -1 q 0,-1 0,-1 v -2 h -1 v -1 h 1 v -2 h 1 v -1 h 1 l 2,-3 q 2,-3 5,-3 3,-2 4,-2 1,0 1,-2 1,-1 2,-1 1,-1 3,-1 h 2 l 7,-3 q 6,-3 8,-4 h 1 v -1 l 24,-9 q 23,-10 25,-10 1,-1 2,0 v -1 h 1 v -1 h 1 v -1 h 3 l 18,-8 q 18,-8 19,-8 h 1 l 1,-1 2,-1 36,-14 q 35,-16 36,-16 h 2 l 2,-1 q 3,-1 4,-2 h 1 q 0,-1 1,-1 l 5,-2 q 5,-2 7,-2 2,0 2,2 -1,2 -3,2 -2,2 -3,2 z m -212,19 1,1 h 1 v 4 h -7 v -1 h -1 q 0,-1 -2,-3 -2,-2 -5,-3 -2,-1 -6,1 l -4,2 -1,1 -1,1 h -4 v -1 h -1 v -1 l 1,-2 1,-1 v -1 l 4,-2 q 4,-2 5,-2 h 1 v -3 h -1 q -1,0 -3,-3 -2,-2 -2,-4 0,-2 2,-2 2,0 7,4 5,4 9,2 4,-2 6,-2 2,0 1,2 0,2 -3,4 -4,3 -1,6 2,2 3,3 z"
       id="path457"
       inkscape:connector-curvature="0"
       style="fill:#fbfbfb;stroke:#fbfbfb" />
    <path
       d="m 413,703 -3,-3 h 4 q 1,1 2,2 0,2 4,4 3,2 3,2 h -1 q -2,0 -2,1 0,0 -1,-1 0,-1 -1,-1 -2,-1 -5,-4 z"
       id="path459"
       inkscape:connector-curvature="0"
       style="fill:#2a2a2a;stroke:#2a2a2a" />
    <path
       d="m 916,326 v 6 l -1,-6 q 0,-5 -1,-5 -1,0 -1,-1 0,-1 -1,-1 -1,0 -1,-1 0,-1 -6,-1 h -6 v 1 q -1,1 -3,0 -2,0 0,0 l 1,-1 1,-1 q 1,-2 3,-1 2,0 2,-1 0,-1 5,-1 6,0 7,3 1,3 1,10 z"
       id="path461"
       inkscape:connector-curvature="0"
       style="fill:#161616;stroke:#161616" />
    <g
       id="g467"
       style="fill:#121212;stroke:#121212">
      <path
         d="m 847,91 v 1 h -1 q -1,0 -1,-1 -1,0 -3,-1 -2,0 -14,5 l -11,5 -1,1 -1,1 h -3 v -1 l -1,-1 -1,-1 v -1 h 2 l 1,-1 1,-1 h 3 l 11,-5 q 11,-5 15,-3 4,2 4,3 z"
         id="path463"
         inkscape:connector-curvature="0" />
      <path
         d="m 447,307 9,6 q 10,5 10,6 h -2 v 2 h -1 v 1 h -1 v 1 q -1,-1 -7,-5 l -7,-4 -1,-1 -1,-1 h -1 q -1,0 -1,-1 l -1,-1 h 1 v -1 h 1 v -1 h 2 z"
         id="path465"
         inkscape:connector-curvature="0" />
    </g>
    <path
       d="m 398,690 v -1 h 2 q 0,1 0,1 h 2 q 1,0 1,1 0,1 1,1 2,0 2,2 1,2 2,2 2,0 3,2 1,1 1,2 h -2 q 0,0 -4,-2 -3,-2 -3,-3 0,-1 -1,-1 -1,0 -1,-1 0,-1 -1,-1 -1,0 -2,-2 z"
       id="path469"
       inkscape:connector-curvature="0"
       style="fill:#1c1c1c;stroke:#1c1c1c" />
    <path
       d="m 696,223 v -1 h 4 l 2,1 h 4 q 2,0 1,11 -1,10 -2,10 h -1 q 0,0 0,-1 0,-1 0,-1 -1,0 -1,-2 0,-1 -1,-1 h -2 q 0,-1 1,-1 1,0 1,-3 0,-3 -4,-2 -3,1 -12,5 -10,4 -9,7 v 3 h -3 v 1 q 0,0 -1,1 h -4 v 1 h -1 q -1,1 -36,14 l -34,13 -1,1 -1,1 h -2 l -1,1 h -1 q -1,1 -1,1 h -1 q -2,0 -41,16 l -39,16 -1,1 -1,1 h -5 v -1 l 1,-1 v -4 l 2,-1 1,-1 91,-39 q 92,-39 93,-40 l 1,-1 h 2 l 1,-1 1,-1 h 1 v -2 z"
       id="path471"
       inkscape:connector-curvature="0"
       style="fill:#090909;stroke:#090909" />
    <path
       d="m 314,176 -2,-23 h 1 v 1 h 1 q 2,0 6,2 5,2 10,0 6,0 13,-4 7,-4 9,18 2,22 0,25 -2,3 -9,6 -8,3 -15,3 -6,0 -9,-2 -3,-2 -5,-26 z"
       id="path473"
       inkscape:connector-curvature="0"
       style="fill:#f8f8f8;stroke:#f8f8f8" />
    <path
       d="m 615,180 h 1 v 1 q -1,1 1,2 2,1 2,-1 0,-1 1,-1 2,1 2,1 h 1 q 0,0 -7,4 l -6,3 v -1 q 0,-1 -1,-2 l -2,-2 3,-2 q 4,-2 5,-2 z m -3,4 q 0,-1 1,-1 0,1 0,1 1,0 1,1 0,1 -1,1 -1,0 0,-1 -1,0 -1,-1 z"
       id="path475"
       inkscape:connector-curvature="0"
       style="fill:#131313;stroke:#131313" />
    <path
       d="m 431,568 h 1 -4 l -2,-1 h -3 v -1 q 0,-1 -2,-1 -2,0 -2,-1 0,-1 -1,-1 -1,0 -1,-1 0,-1 -5,-2 -4,-2 -6,-5 -1,-3 0,-3 2,0 3,2 1,2 5,3 5,2 6,3 1,2 2,3 1,1 4,1 4,1 4,2 0,2 1,2 z"
       id="path477"
       inkscape:connector-curvature="0"
       style="fill:#222222;stroke:#222222" />
    <path
       d="m 934,132 q 0,0 3,1 3,1 3,4 0,2 4,7 2,4 2,8 -1,4 -24,12 l -22,9 q 0,-1 1,-1 1,0 1,-2 0,-1 -2,-2 h -2 q 0,0 2,-1 l 1,-1 17,-6 q 17,-8 18,-8 h 1 l 1,-1 1,-1 h 2 v -1 h -1 v -3 l -1,-1 -1,-1 v -3 h -1 v 1 h -1 q -1,0 -4,1 l -2,1 v -1 h -1 v 1 h -3 v -2 h 1 v -1 h 1 v -1 l 1,-1 1,-1 h 3 v -1 h 1 v -1 h -1 v -2 l 1,-1 z"
       id="path479"
       inkscape:connector-curvature="0"
       style="fill:#0c0c0c;stroke:#0c0c0c" />
    <path
       d="m 948,395 q 0,-1 4,-1 3,0 3,1 0,1 -7,3 -8,1 -8,2 -1,0 -2,0 -2,0 -2,-1 0,-1 6,-2 6,-1 6,-2 z"
       id="path481"
       inkscape:connector-curvature="0"
       style="fill:#1e1e1e;stroke:#1e1e1e" />
    <path
       d="m 761,51 -1,-25 h 1 v 1 h 1 v 1 h 2 q 1,0 2,1 1,1 12,1 12,0 18,0 6,-2 12,-5 6,-4 6,14 1,19 1,20 -1,1 -2,5 -1,3 -5,7 -4,3 -13,5 -9,2 -15,2 -7,0 -13,0 -6,-2 -6,-27 z"
       id="path483"
       inkscape:connector-curvature="0"
       style="fill:#fafafa;stroke:#fafafa" />
    <path
       d="m 824,68 v -1 l 1,-1 v -2 h 3 l 1,1 h 1 v 3 l -1,2 -1,1 v 1 q 0,2 -3,6 -2,4 -9,8 l -7,4 -1,1 -1,1 h -1 l -1,1 h -2 q -1,1 -19,1 -19,0 -28,-2 -9,-2 -14,-6 l -4,-4 v -1 l -1,-5 -1,-4 v -2 l 2,-3 q 1,-3 4,-3 2,-1 2,4 0,6 1,8 1,3 5,6 3,2 13,4 10,2 20,2 10,0 17,-2 7,-2 10,-4 3,0 6,-2 2,-1 5,-6 3,-4 3,-6 z m -7,13 q 1,-1 1,-1 0,0 1,1 0,1 -1,1 -2,0 -1,-1 z"
       id="path485"
       inkscape:connector-curvature="0"
       style="fill:#ededed;stroke:#ededed" />
    <path
       d="m 437,382 -1,18 v 1 l 1,2 v 2 h -1 l -1,-1 h -1 v -1 h -1 v -1 h -2 l -72,-45 q -71,-45 -102,-65 -31,-19 -34,-24 -3,-5 -3,-23 0,-18 73,29 73,46 108,68 36,23 36,40 z"
       id="path487"
       inkscape:connector-curvature="0"
       style="fill:#fafafa;stroke:#fafafa" />
    <path
       d="m 929,354 1,-5 h 1 l 1,1 q 2,2 2,3 0,1 3,1 3,0 3,1 -1,1 -2,1 -1,0 -2,1 -2,1 -2,3 0,2 -1,2 h -1 v 2 h -1 v 1 h 1 v 2 h -1 v 1 h 3 q 3,0 4,-1 l 1,-1 h 4 v 1 h -1 v 1 h -4 v 1 h -1 v 1 q -1,0 -1,0 0,0 -1,1 -1,2 -3,3 h -1 v 1 q 1,0 1,1 v 6 q 0,1 2,1 3,0 3,-1 l 1,-1 v 5 h -2 q -2,0 -2,1 0,1 -1,1 -1,0 -1,6 l -1,6 h -1 v -20 q 0,-20 -1,-20 -1,0 0,-6 z"
       id="path489"
       inkscape:connector-curvature="0"
       style="fill:#161616;stroke:#161616" />
    <path
       d="m 466,405 -2,1 h -2 v 1 h -1 v -1 h -1 v -1 l -1,-19 q -1,-18 205,-98 206,-78 284,-108 78,-30 77,-16 -1,14 -2,20 -1,6 -5,10 -3,4 -30,14 -26,10 -28,11 -3,0 -4,1 0,0 -5,2 -5,2 -8,3 -3,0 -3,1 -1,0 -16,6 -14,6 -31,12 -17,6 -30,12 -13,6 -17,7 -5,1 -18,7 -12,4 -14,5 -2,0 -3,1 0,1 -25,10 -25,8 -31,10 -6,2 -11,5 -6,3 -18,7 -12,4 -15,5 -3,0 -3,1 0,1 -4,2 -4,2 -20,7 -15,5 -15,6 0,1 -31,12 -30,11 -81,30 -51,19 -67,25 -17,6 -20,8 -3,0 -4,1 z"
       id="path491"
       inkscape:connector-curvature="0"
       style="fill:#fbfbfb;stroke:#fbfbfb" />
    <g
       id="g497"
       style="fill:#111111;stroke:#111111">
      <path
         d="m 412,201 1,1 h 1 v 4 h -7 v -1 h -1 q 0,-1 -2,-3 -2,-2 -5,-3 -2,-1 -6,1 l -4,2 -1,1 -1,1 h -4 v -1 h -1 v -1 l 1,-2 1,-1 v -1 l 4,-2 q 4,-2 5,-2 h 1 v -3 h -1 q -1,0 -3,-3 -2,-2 -2,-4 0,-2 2,-2 2,0 7,4 5,4 9,2 4,-2 6,-2 2,0 1,2 0,2 -3,4 -4,3 -1,6 2,2 3,3 z"
         id="path493"
         inkscape:connector-curvature="0" />
      <path
         d="m 808,99 h 2 l 1,1 1,1 v 1 q 0,0 -29,13 l -29,13 h -5 l -1,-1 h -1 v -1 l 1,-1 v -1 l 1,-1 1,-1 h 3 l 27,-12 q 27,-10 28,-11 z"
         id="path495"
         inkscape:connector-curvature="0" />
    </g>
    <path
       d="m 876,495 -4,1 v -1 h 1 q 1,0 1,-1 0,-1 2,-1 2,0 2,-1 v -1 l 6,-3 q 6,-2 8,-3 h 1 v -1 q 0,-1 3,-2 4,0 4,1 0,1 -2,1 -2,1 -2,2 0,1 -2,1 -3,0 -3,1 0,1 -5,2 -6,2 -6,3 0,1 -4,2 z"
       id="path499"
       inkscape:connector-curvature="0"
       style="fill:#181818;stroke:#181818" />
    <path
       d="m 930,418 v -18 h 1 v 16 q 0,15 1,15 1,0 1,3 v 3 h -1 v -1 q 0,-1 -1,-1 -1,0 -1,-17 z"
       id="path501"
       inkscape:connector-curvature="0"
       style="fill:#101010;stroke:#101010" />
    <path
       d="m 734,168 v -1 l 18,13 q 19,14 19,15 0,1 3,3 4,2 32,-10 28,-10 29,-11 h 1 v 1 q 0,1 -1,1 l -1,1 h -1 v 1 h -1 v 1 h 4 v -1 h 1 v 1 h 1 q 0,0 -1,1 l -1,1 h -2 q -1,0 -25,10 l -24,10 -1,1 -1,1 h -1 v 1 h -1 v -1 h -1 v 3 l 1,1 1,1 v 2 h 1 v 1 h 2 l 1,-1 2,-1 14,-6 q 15,-6 16,-6 h 1 l 1,-1 2,-1 h 2 l 1,1 1,1 v 2 h -1 v 1 h -1 v 1 h -1 l -1,1 -1,1 h -1 q -2,0 -19,7 -17,7 -17,9 0,2 -3,2 -3,0 -10,-5 l -7,-6 h -1 v -1 h -2 v -1 h -1 v -1 h -2 v -1 h -1 v -1 l 1,-1 1,-1 h 3 l 1,1 h 2 v 1 l 3,2 q 3,2 3,2 h 1 v 1 h 1 v 1 h 1 l 1,1 1,1 h 3 -1 v -2 l -1,-1 -1,-1 v -5 h -1 q 0,-1 -20,-17 l -20,-16 h -1 v -1 h -1 v -1 h 1 q 1,0 1,-1 1,-1 0,-1 -1,-1 -1,-2 z"
       id="path503"
       inkscape:connector-curvature="0"
       style="fill:#0d0d0d;stroke:#0d0d0d" />
    <path
       d="m 1004,548 v 2 h -2 q -1,0 -162,84 -162,84 -252,131 -90,47 -98,50 l -8,3 h -2 l -2,-34 q -2,-33 -4,-128 -2,-96 -3,-98 -1,-1 0,-6 1,-4 -1,-11 0,-7 -2,-57 0,-49 1,-53 2,-5 49,-23 46,-18 254,-98 207,-80 221,-85 14,-5 13,47 0,53 -2,112 0,60 -2,69 -2,9 0,15 0,5 0,37 -1,33 -1,36 1,4 2,5 1,0 1,2 z M 912,299 v -1 h 4 q 4,0 4,1 0,1 3,1 3,0 3,1 0,1 1,1 1,0 1,1 0,1 1,1 1,0 1,1 -1,1 -4,0 -2,-1 -2,-2 -1,-1 -7,-1 h -9 q -2,0 -2,1 0,0 -6,1 -5,1 -5,2 0,1 -2,1 -2,0 -2,1 0,1 -3,2 -4,1 -4,2 0,1 -2,1 -2,0 -2,1 v 1 h -4 v 2 h -2 l -3,-1 h 1 l 1,-1 1,-1 h 1 l 1,-1 2,-1 h 2 q 2,-1 2,-2 0,-1 2,-1 2,0 2,-1 0,-1 2,-1 2,0 2,-1 1,0 7,-3 6,-3 10,-3 h 4 q 1,0 1,-1 z m 4,27 v 6 l -1,-6 q 0,-5 -1,-5 -1,0 -1,-1 0,-1 -1,-1 -1,0 -1,-1 0,-1 -6,-1 h -6 v 1 q -1,1 -3,0 -2,0 0,0 l 1,-1 1,-1 q 1,-2 3,-1 2,0 2,-1 0,-1 5,-1 6,0 7,3 1,3 1,10 z m 22,13 q 1,-1 4,-1 h 3 v -1 q 1,0 3,-1 2,0 2,-1 0,-1 4,-1 5,-1 5,-2 0,-1 2,-1 2,1 -1,2 -4,1 -4,2 0,1 -2,1 -3,0 -3,1 0,1 -2,1 -2,0 -2,1 0,1 -1,1 -2,0 -2,1 0,1 -3,1 l -3,-1 v 1 q 0,0 -2,1 -2,1 -2,2 0,2 -2,3 l -1,1 1,1 q 2,2 2,3 0,1 3,1 3,0 3,1 -1,1 -2,1 -1,0 -2,1 -2,1 -2,3 0,2 -1,2 h -1 v 2 h -1 v 1 h 1 v 2 h -1 v 1 h 3 q 3,0 4,-1 l 1,-1 h 4 v 1 h -1 v 1 h -4 v 1 h -1 v 1 q -1,0 -1,0 0,0 -1,1 -1,2 -3,3 h -1 v 1 q 1,0 1,1 v 6 q 0,1 2,1 3,0 3,-1 l 1,-1 v 5 h -2 q -2,0 -2,1 0,1 -1,1 -1,0 -1,6 l -1,6 v 16 q 0,15 1,15 1,0 1,3 v 3 l -1,11 q -1,11 -2,11 h -1 v 5 h -2 v 1 l -1,1 v -3 h 2 v -3 q 0,-3 1,-3 1,0 1,-5 0,-6 1,-6 1,0 1,-4 v -6 q 0,-1 -1,-1 -1,0 -1,-17 v -38 q 0,-20 -1,-20 -1,0 0,-6 l 1,-5 v -3 q 0,-3 -1,-3 h -1 v -3 q 0,-2 1,-2 1,0 1,-8 0,-7 1,-7 1,0 1,3 0,3 1,3 1,0 1,3 0,2 -1,2 -1,0 -1,2 0,2 3,2 3,0 3,1 z m 10,56 q 0,-1 4,-1 3,0 3,1 0,1 -7,3 -8,1 -8,2 -1,0 -2,0 -2,0 -2,-1 0,-1 6,-2 6,-1 6,-2 z m -6,14 2,-1 h 1 v 1 q 1,0 1,-1 0,-1 6,-2 5,-1 5,-2 0,-1 3,-1 2,0 2,1 0,1 -2,1 -2,0 -2,1 0,1 -2,1 -1,-1 -2,0 0,1 -7,3 -7,2 -7,3 0,1 -1,-1 0,-2 3,-3 z m -66,86 -4,1 h -1 q -1,0 -1,2 -1,2 -3,2 -2,0 -2,1 0,1 -2,1 -2,0 -2,1 0,1 -3,2 l -4,1 h -1 v -1 h -1 v 2 h -2 l -2,1 -1,-1 v -1 h 3 v -1 h 1 v -1 h 3 v -1 q 0,-1 2,-1 2,0 2,-1 0,-1 4,-2 5,-1 5,-2 0,-1 1,-1 1,0 2,-1 h 3 q 1,0 1,-1 0,-1 2,-1 2,0 2,-1 v -1 l 6,-3 q 6,-2 8,-3 h 1 v -1 q 0,-1 3,-2 4,0 4,1 0,1 -2,1 -2,1 -2,2 0,1 -2,1 -3,0 -3,1 0,1 -5,2 -6,2 -6,3 0,1 -4,2 z m -319,33 h 1 l 2,-1 q 2,-1 5,-1 2,-1 2,-2 1,-1 3,0 2,0 2,-1 0,-1 2,-1 2,0 2,-1 0,-1 2,-1 3,0 3,-1 1,-1 1,1 0,2 -1,2 -1,0 -1,1 0,1 -6,1 -6,1 -6,2 0,1 -7,3 -7,2 -7,1 0,-1 1,-1 1,-1 2,-1 z m 16,48 h -2 l -1,-1 q 0,-1 2,-1 2,-2 4,-2 h 1 v -1 q 0,-1 7,-3 6,-1 6,-22 0,-20 1,-20 1,0 1,34 0,34 -1,34 -1,0 -1,-12 0,-12 -4,-12 -4,0 -4,1 0,1 -4,2 -3,1 -3,2 0,1 -2,1 z m -9,-33 v -1 l 3,-1 q 3,-1 3,-2 0,-1 2,-1 2,0 4,0 3,-1 3,-2 0,-1 2,-2 3,0 2,2 0,2 -1,2 -2,0 -4,0 -1,0 -1,2 0,1 -2,1 -3,0 -7,1 -4,2 -4,1 z m -45,21 -1,1 v -1 h -3 q -1,0 -1,1 0,1 -3,1 -3,0 -3,1 0,1 -3,1 l -3,1 q 0,1 0,0 h -2 q -1,0 -1,1 0,1 -3,1 l -2,1 h -1 l -1,1 h -2 v -2 h 1 l 1,-1 h 2 l 1,-1 1,-1 h 5 q 1,-1 1,-1 l 2,-1 q 1,0 1,-1 0,-1 2,-1 3,1 4,0 1,-2 2,-2 1,0 2,0 v 1 h 1 v -2 h 4 q 3,0 3,-1 0,-1 2,-1 2,0 2,-1 0,-1 2,-1 2,0 2,-1 0,-1 3,0 2,0 0,1 -2,0 -2,1 0,1 -4,2 -3,0 -3,1 0,1 -3,1 -3,0 -3,2 z m 184,-9 q 2,1 1,1 -1,0 -4,1 -4,1 -4,2 0,1 -2,1 -2,0 -2,1 0,1 -2,1 -2,0 -4,2 -2,1 -4,1 -2,0 3,-3 4,-2 4,-3 0,-1 5,-2 6,-1 6,-1 1,-1 3,-1 z m -66,32 h -1 q 0,0 -1,1 0,1 -2,1 -2,0 -2,1 0,1 -3,1 -3,0 -3,1 0,1 -3,1 -2,0 -2,1 0,1 -4,1 h -4 v -1 h -1 v 1 h -1 v -1 h -1 v 1 h -1 v -1 h -1 v -1 h -1 v -2 h 2 v 2 h 4 q 4,0 4,-1 0,-1 3,-1 3,0 3,-1 0,-1 4,-2 3,0 5,-1 3,0 3,-1 1,0 2,0 v -2 q 1,-1 3,-1 1,0 4,-1 2,0 2,-1 0,-1 3,-1 4,-1 4,-2 0,-1 3,-1 3,0 3,-1 0,-1 4,-2 3,-1 3,-2 0,-1 3,-1 2,0 1,1 -2,0 -2,1 0,1 -2,1 -2,0 -2,1 0,1 -2,1 -2,0 -2,1 0,1 -2,1 -2,0 -2,1 0,1 -1,1 -2,0 -2,1 0,1 -3,1 -3,0 -3,1 0,1 -2,1 -2,0 -2,1 0,1 -2,1 -2,0 -3,1 z m -88,106 h -2 v 2 h -2 l -2,-1 h 3 v -2 h 2 v -1 h 1 v 1 h 1 v -1 q 0,-1 2,-1 1,0 1,-1 0,-1 2,-1 2,0 2,-1 0,-1 3,-1 3,0 3,-1 0,-1 3,-1 4,-1 4,-2 0,-2 3,-2 3,1 3,0 0,-1 2,-1 1,-1 2,1 0,1 -2,1 -1,0 -1,1 0,1 -2,1 -2,0 -2,1 -1,1 -5,2 -4,0 -4,1 0,1 -3,2 -3,1 -3,1 -1,1 -4,1 -3,0 -3,1 0,1 -2,1 z m -45,4 h -1 v 1 h -2 v -1 h -1 v -2 h 3 v -2 h 2 q 2,0 2,-1 0,-1 7,-2 6,-2 6,-3 0,-1 6,-3 5,-1 5,-2 0,-1 1,0 1,1 0,1 -1,0 -2,1 -1,1 -2,1 -1,0 -4,1 -3,1 -3,2 0,1 -2,1 -2,0 -2,1 0,1 -1,1 -2,0 -2,1 0,1 -2,1 -2,0 -2,1 0,1 -3,2 -3,0 -3,1 z m 2,19 h -1 l -1,-1 -2,-1 h 3 v -2 h 2 v 1 h 1 v -3 h 2 q 2,0 2,-1 0,-1 2,-1 2,0 2,-1 0,-1 2,-1 3,-1 3,-2 0,-1 2,-1 2,0 2,-1 0,-1 2,-1 2,0 2,-1 0,-1 3,-1 2,0 2,-1 0,-1 2,0 2,0 0,1 -2,1 -4,3 -1,0 -4,1 -3,1 -3,2 0,1 -2,1 -2,0 -2,1 0,1 -2,1 -2,0 -2,1 0,1 -2,1 -2,0 -2,1 0,1 -3,3 -4,2 -4,2 z"
       id="path505"
       inkscape:connector-curvature="0"
       style="fill:#f5f5f5;stroke:#f5f5f5" />
    <path
       d="m 633,176 h 6 l 1,1 h 1 v 2 l 15,11 q 16,10 17,11 l 1,1 v 2 h -1 v 1 h -1 v 2 l -1,-1 h -1 v -1 h -1 v -1 h -2 v -1 h -1 v -1 q 0,0 -14,-10 l -14,-10 v -1 h -1 v -1 h -1 v -1 h -1 v -1 h -1 v -2 z"
       id="path507"
       inkscape:connector-curvature="0"
       style="fill:#1a1a1a;stroke:#1a1a1a" />
    <path
       d="m 549,693 h -2 v 2 h -2 l -2,-1 h 3 v -2 h 2 v -1 h 1 v 1 h 1 v -1 q 0,-1 2,-1 1,0 1,-1 0,-1 2,-1 2,0 2,-1 0,-1 3,-1 3,0 3,-1 0,-1 3,-1 4,-1 4,-2 0,-2 3,-2 3,1 3,0 0,-1 2,-1 1,-1 2,1 0,1 -2,1 -1,0 -1,1 0,1 -2,1 -2,0 -2,1 -1,1 -5,2 -4,0 -4,1 0,1 -3,2 -3,1 -3,1 -1,1 -4,1 -3,0 -3,1 0,1 -2,1 z"
       id="path509"
       inkscape:connector-curvature="0"
       style="fill:#1e1e1e;stroke:#1e1e1e" />
    <path
       d="m 557,528 h 1 l 2,-1 q 2,-1 5,-1 2,-1 2,-2 1,-1 3,0 2,0 2,-1 0,-1 2,-1 2,0 2,-1 0,-1 2,-1 3,0 3,-1 1,-1 1,1 0,2 -1,2 -1,0 -1,1 0,1 -6,1 -6,1 -6,2 0,1 -7,3 -7,2 -7,1 0,-1 1,-1 1,-1 2,-1 z"
       id="path511"
       inkscape:connector-curvature="0"
       style="fill:#181818;stroke:#181818" />
    <path
       d="m 809,1 v 2 h 1 l 2,1 h 1 v 1 h 1 v 1 c 0.66667,0 1.33333,1.6666667 2,5 0.66667,2.666667 1.66667,4.333333 3,5 0.66667,0.666667 1,4 1,10 0,6 0.33333,10.666667 1,14 0,4 1,6 3,6 2.66667,0 5.66667,1 9,3 l 25,10 c 13.33333,6 45.33333,18.666667 96,38 50,19.33333 75.6667,30 77,32 2,2 3,14.66667 3,38 0.6667,23.33333 0.6667,35 0,35 -0.6667,0 -1,0.33333 -1,1 -0.6667,0.66667 -1.3333,1 -2,1 l -4,4 c -2,2.66667 -3,10.66667 -3,24 v 41 28 c 0,4 -0.6667,6 -2,6 l -2,2 c 0,1.33333 -0.3333,2 -1,2 -0.6667,0 -1,1 -1,3 0,1.33333 0.6667,3.33333 2,6 1.3333,2.66667 2,5.33333 2,8 -1.3333,2.66667 -1.3333,4.66667 0,6 1.3333,1.33333 2,5 2,11 v 15 c -1.3333,4 -2,7.33333 -2,10 0,2.66667 0.6667,9.33333 2,20 0,10 -0.3333,22 -1,36 -0.6667,13.33333 -2.3333,21.33333 -5,24 -2.6667,2 -4,4.33333 -4,7 0,2.66667 0.6667,5 2,7 l 4,8 c 1.3333,2.66667 2,11.33333 2,26 v 34 18 c -1.3333,3.33333 -2.6667,5.66667 -4,7 -2,1.33333 -3,2.33333 -3,3 0,0.66667 -0.3333,1 -1,1 -0.6667,0.66667 -20.66667,11 -60,31 -40,20 -101.66667,52 -185,96 -83.33333,44 -152,80 -206,108 -54,29.33333 -82,45 -84,47 -2,2 -4,3 -6,3 -2,0 -3.66667,-0.33333 -5,-1 -1.33333,-1.33333 -14,-12.33333 -38,-33 -24.66667,-21.33333 -64,-54.66667 -118,-100 -54.66667,-45.33333 -81.66667,-69.66667 -81,-73 0.66667,-4 0.33333,-24.33333 -1,-61 -1.33333,-36 -4,-94.33333 -8,-175 -3.33333,-80.66667 -6,-121.33333 -8,-122 -2.66667,-0.66667 -4,-1.33333 -4,-2 0,-0.66667 -0.33333,-1 -1,-1 -0.66667,0 -1.66667,-1.33333 -3,-4 -1.33333,-2 -2,-5.33333 -2,-10 0.66667,-4.66667 1.33333,-7 2,-7 0.66667,-0.66667 0.66667,-10 0,-28 0,-18.66667 1.33333,-28.33333 4,-29 2,0 7,-0.66667 15,-2 8,-1.33333 22.33333,-5.33333 43,-12 21.33333,-6.66667 32,-13 32,-19 0,-6 0.33333,-11 1,-15 0.66667,-3.33333 2.33333,-7 5,-11 2.66667,-4 7.66667,-7 15,-9 7.33333,-2.66667 14.33333,-3.66667 21,-3 7.33333,0.66667 11,1.33333 11,2 0,0.66667 0.33333,1 1,1 1.33333,0 2,1.66667 2,5 0.66667,3.33333 1.33333,7 2,11 v 7 l 1,1 v 2 h 2 l 139,-42 c 92.66667,-26.666667 148,-42.666667 166,-48 18.66667,-5.333333 38,-11 58,-17 20.66667,-6 31.33333,-13.666667 32,-23 0,-8.666667 0.33333,-13.333333 1,-14 0,-1.333333 1.66667,-3 5,-5 3.33333,-2 5.66667,-3 7,-3 1.33333,0 2.33333,-0.3333333 3,-1 l 1,-1 h 3 l 2,-1 h 2 V 1 Z m -34,21 -7,-2 h -5 v -2 l 1,-1 v -1 h 1 v -1 h 1 v -1 h 3 l 1,-1 c 0.66667,-0.666667 2,-1.333333 4,-2 2.66667,-0.666667 8,-1.3333333 16,-2 8.66667,-0.6666667 14,-0.6666667 16,0 1.33333,0.6666667 2.33333,1.666667 3,3 0.66667,1.333333 -0.66667,3 -4,5 -3.33333,2 -8,3.666667 -14,5 -6,1.333333 -11.33333,1.333333 -16,0 z m -14,29 -1,-25 h 1 v 1 h 1 v 1 h 2 c 0.66667,0 1.33333,0.333333 2,1 0.66667,0.666667 4.66667,1 12,1 h 18 c 4,-1.333333 8,-3 12,-5 4,-2.666667 6,2 6,14 0.66667,12.666667 1,19.333333 1,20 -0.66667,0.666667 -1.33333,2.333333 -2,5 -0.66667,2 -2.33333,4.333333 -5,7 -2.66667,2 -7,3.666667 -13,5 -6,1.333333 -11,2 -15,2 h -13 c -4,-1.333333 -6,-10.333333 -6,-27 z m 63,17 v -1 l 1,-1 v -2 h 3 l 1,1 h 1 v 3 l -1,2 -1,1 v 1 c 0,1.333333 -1,3.333333 -3,6 -1.33333,2.666667 -4.33333,5.333333 -9,8 l -7,4 -1,1 -1,1 h -1 v 1 h -1 v 1 h 1 v 3 h 1 v 1 h 1 l 1,-1 1,-1 h 2 l 1,-1 1,-1 6,-4 c 4,-2.666667 7.33333,-6.666667 10,-12 2.66667,-5.333333 4,-8.666667 4,-10 v -1 h 1 v 1 l 26,11 c 18,8 27,11.666667 27,11 0,-0.666667 0.33333,-1 1,-1 0.66667,0 1,0.333333 1,1 -0.66667,1.333333 4.66667,4 16,8 11.33333,5.33333 20,9 26,11 6.66667,2 13.33333,4.33333 20,7 6,2.66667 9,4.33333 9,5 0,0.66667 1,1 3,1 1.33333,0 2.33333,0.33333 3,1 0,0.66667 5.66667,3.66667 17,9 12,5.33333 18.6667,8 20,8 h 1 l 1,1 1,1 h 3 v 2 h -1 l -1,1 -2,1 h -3 l -1,1 c -0.6667,0.66667 -40.66667,16 -120,46 -80,30 -145.33333,54.66667 -196,74 -50,19.33333 -80,31 -90,35 -10.66667,4 -19.33333,7 -26,9 -6.66667,2 -10,3.33333 -10,4 0,0.66667 -17,7 -51,19 -34,12 -53.33333,18.66667 -58,20 -4.66667,0 -7,-0.33333 -7,-1 -0.66667,-1.33333 -2.66667,-3 -6,-5 -4,-2.66667 -38.33333,-24.33333 -103,-65 l -97,-61 v -1 h -1 v -1 h -1 l -1,-1 -1,-1 h -1 v -1 h 1 v -1 h 5 l 25,-8 c 16,-5.33333 24.66667,-8.33333 26,-9 l 2,-1 h 2 l 2,-1 h 1 v 1 l -1,1 v 1 l -2,2 v 11 c 1.33333,5.33333 2,8.33333 2,9 0,0.66667 3.33333,3 10,7 6,3.33333 13.66667,5 23,5 9.33333,0 17.33333,-2 24,-6 6.66667,-5.33333 11.33333,-9.33333 14,-12 2,-3.33333 3,-7.33333 3,-12 0,-5.33333 -0.66667,-9.33333 -2,-12 -2,-2.66667 -4,-3.66667 -6,-3 -1.33333,0 -2.33333,-1.66667 -3,-5 l -1,-4 v -1 h 1 v -1 l 36,-10 c 24,-6.66667 85.66667,-25.33333 185,-56 98.66667,-29.333333 148.66667,-44.333333 150,-45 h 2 v 2 c 0,1.333333 0.33333,3.666667 1,7 l 1,6 v 2 h 1 v -1 h 1 v -1 h 2 v -1 l -1,-5 -1,-4 v -2 l 2,-3 c 0.66667,-2 2,-3 4,-3 1.33333,-0.666667 2,0.666667 2,4 0,4 0.33333,6.666667 1,8 0.66667,2 2.33333,4 5,6 2,1.333333 6.33333,2.666667 13,4 6.66667,1.333333 13.33333,2 20,2 6.66667,0 12.33333,-0.666667 17,-2 4.66667,-1.333333 8,-2.666667 10,-4 2,0 4,-0.666667 6,-2 1.33333,-0.666667 3,-2.666667 5,-6 2,-2.666667 3,-4.666667 3,-6 z m -511,74 1,-2 h 1 l 1,-1 c 1.33333,-0.66667 3.66667,-1.33333 7,-2 3.33333,-0.66667 7.66667,-1.33333 13,-2 4.66667,-0.66667 7.66667,-0.33333 9,1 1.33333,0 2.33333,1 3,3 0,1.33333 -2,3.33333 -6,6 -4,2 -8.66667,3.33333 -14,4 -4.66667,0.66667 -8.66667,0.33333 -12,-1 -3.33333,-0.66667 -5,-1.66667 -5,-3 0.66667,-1.33333 1.33333,-2.33333 2,-3 z m 1,34 -2,-23 h 1 v 1 h 1 c 1.33333,0 3.33333,0.66667 6,2 3.33333,1.33333 6.66667,1.33333 10,0 4,0 8.33333,-1.33333 13,-4 4.66667,-2.66667 7.66667,3.33333 9,18 1.33333,14.66667 1.33333,23 0,25 -1.33333,2 -4.33333,4 -9,6 -5.33333,2 -10.33333,3 -15,3 -4,0 -7,-0.66667 -9,-2 -2,-1.33333 -3.66667,-10 -5,-26 z m 152,229 -2,1 h -2 v 1 h -1 v -1 h -1 v -1 l -1,-19 c -0.66667,-12 67.66667,-44.66667 205,-98 137.33333,-52 232,-88 284,-108 52,-20 77.6667,-25.33333 77,-16 -0.6667,9.33333 -1.3333,16 -2,20 -0.6667,4 -2.3333,7.33333 -5,10 -2,2.66667 -12,7.33333 -30,14 -17.33333,6.66667 -26.66667,10.33333 -28,11 -2,0 -3.33333,0.33333 -4,1 l -5,2 c -3.33333,1.33333 -6,2.33333 -8,3 -2,0 -3,0.33333 -3,1 -0.66667,0 -6,2 -16,6 -9.33333,4 -19.66667,8 -31,12 -11.33333,4 -21.33333,8 -30,12 -8.66667,4 -14.33333,6.33333 -17,7 -3.33333,0.66667 -9.33333,3 -18,7 -8,2.66667 -12.66667,4.33333 -14,5 -1.33333,0 -2.33333,0.33333 -3,1 0,0.66667 -8.33333,4 -25,10 -16.66667,5.33333 -27,8.66667 -31,10 -4,1.33333 -7.66667,3 -11,5 -4,2 -10,4.33333 -18,7 l -15,5 c -2,0 -3,0.33333 -3,1 0,0.66667 -1.33333,1.33333 -4,2 -2.66667,1.33333 -9.33333,3.66667 -20,7 -10,3.33333 -15,5.33333 -15,6 0,0.66667 -10.33333,4.66667 -31,12 -20,7.33333 -47,17.33333 -81,30 -34,12.66667 -56.33333,21 -67,25 -11.33333,4 -18,6.66667 -20,8 -2,0 -3.33333,0.33333 -4,1 z M 308,216 v -1 h -1 v -1 h -1 v -2 l -1,-2 -1,-1 v -2 l 1,-1 1,-1 v -1 h 3 l 1,1 1,1 5,2 c 3.33333,1.33333 8.66667,2 16,2 6.66667,0 12.66667,-0.66667 18,-2 4.66667,-1.33333 7.33333,-2.66667 8,-4 h 3 c 0.66667,0 0.33333,1.66667 -1,5 -1.33333,3.33333 -3.66667,5.66667 -7,7 -2.66667,1.33333 -4,2.33333 -4,3 0,0.66667 -1,1 -3,1 -2,0 -3.33333,0.66667 -4,2 -1.33333,0 -5,0.66667 -11,2 -6,0 -11,-0.66667 -15,-2 -4,-2.66667 -6.33333,-4.33333 -7,-5 z m 696,332 v 2 h -2 c -0.6667,0 -54.66667,28 -162,84 -108,56 -192,99.66667 -252,131 -60,31.33333 -92.66667,48 -98,50 l -8,3 h -2 l -2,-34 c -1.33333,-22 -2.66667,-64.66667 -4,-128 -1.33333,-64 -2.33333,-96.66667 -3,-98 -0.66667,-0.66667 -0.66667,-2.66667 0,-6 0.66667,-2.66667 0.33333,-6.33333 -1,-11 0,-4.66667 -0.66667,-23.66667 -2,-57 0,-32.66667 0.33333,-50.33333 1,-53 1.33333,-3.33333 17.66667,-11 49,-23 30.66667,-12 115.33333,-44.66667 254,-98 138,-53.33333 211.66667,-81.66667 221,-85 9.3333,-3.33333 13.6667,12.33333 13,47 0,35.33333 -0.6667,72.66667 -2,112 0,40 -0.6667,63 -2,69 -1.3333,6 -1.3333,11 0,15 v 37 c -0.6667,22 -1,34 -1,36 0.6667,2.66667 1.3333,4.33333 2,5 0.6667,0 1,0.66667 1,2 z m -567,-166 -1,18 v 1 l 1,2 v 2 h -1 l -1,-1 h -1 v -1 h -1 v -1 h -2 l -72,-45 c -47.33333,-30 -81.33333,-51.66667 -102,-65 -20.66667,-12.66667 -32,-20.66667 -34,-24 -2,-3.33333 -3,-11 -3,-23 0,-12 24.33333,-2.33333 73,29 48.66667,30.66667 84.66667,53.33333 108,68 24,15.33333 36,28.66667 36,40 z m 24,412 v 19 h -1 l -1,-1 h -1 v -1 h -1 v -1 h -1 v -1 h -1 v -1 h -1 c -0.66667,0 -2,-1.33333 -4,-4 -2.66667,-2.66667 -11,-10 -25,-22 -14,-12 -36.33333,-31 -67,-57 -30,-26 -45.33333,-39 -46,-39 -0.66667,0 -1,-0.33333 -1,-1 0,-0.66667 -2.33333,-3 -7,-7 -5.33333,-4 -14,-11.33333 -26,-22 -13.33333,-11.33333 -21.66667,-62 -25,-152 -3.33333,-90.66667 -5.66667,-146 -7,-166 v -30 c 0.66667,0 34.33333,20.66667 101,62 66.66667,41.33333 100.33333,62 101,62 0,0.66667 0.66667,13 2,37 1.33333,24 2.66667,59.66667 4,107 1.33333,48 2.33333,76.33333 3,85 0.66667,8.66667 1.33333,29.66667 2,63 0.66667,33.33333 1.33333,56.66667 2,70 z"
       id="path513"
       inkscape:connector-curvature="0"
       style="fill:#030303;stroke:#030303"
       sodipodi:nodetypes="ccccccccccscscccccscccscsccssscsscscccscsscccsccscsscccccccsscccccscscsccsscccccccccccsssccccccsccccccccccscccssssccccccsssccccccssccscccccccccscscccccccccccccccccsssccccssccccssccscccccccccscccssscccscccccccccccccscccccccccscsccscccccccscccsccccccccccccccsccssscccsccccsccccccccccccsccssscsscccccccccccsssccccscccsscccccscscsccscsccccccccccccccccccssccsscsscccscscscsscccccccccccsccsccccsccccccccccccccsscccccccccccccccscscsscccccscscssc" />
    <path
       d="m 942,409 2,-1 h 1 v 1 q 1,0 1,-1 0,-1 6,-2 5,-1 5,-2 0,-1 3,-1 2,0 2,1 0,1 -2,1 -2,0 -2,1 0,1 -2,1 -1,-1 -2,0 0,1 -7,3 -7,2 -7,3 0,1 -1,-1 0,-2 3,-3 z"
       id="path515"
       inkscape:connector-curvature="0"
       style="fill:#1c1c1c;stroke:#1c1c1c" />
    <path
       d="m 936,142 h 1 v -1 h 1 v 3 l 1,1 1,1 v 3 h 1 v 1 h -2 l -1,1 -1,1 h -1 q -1,0 -18,8 l -17,6 -1,1 q -1,1 -1,1 h -2 q -1,0 -35,14 l -35,14 -1,1 -2,1 h -2 l -2,1 -1,1 h -1 q -1,0 -16,6 l -14,6 -2,1 -1,1 h -2 v -1 h -1 v -2 l -1,-1 -1,-1 v -3 h 1 v 1 h 1 v -1 h 1 l 1,-1 1,-1 25,-10 q 25,-10 25,-11 h 1 q 2,-1 2,-1 h 2 l 45,-19 q 45,-18 45,-19 l 2,-1 q 3,-1 4,-1 z"
       id="path517"
       inkscape:connector-curvature="0"
       style="fill:#f1f1f1;stroke:#f1f1f1" />
    <path
       d="m 715,137 h 1 v 1 h 1 q 1,1 0,2 -1,1 1,2 1,0 1,1 h -1 q 0,1 -1,1 h -1 l -2,1 -1,1 h -2 v 1 l 1,1 v 1 h 1 v 1 h 2 l 9,8 q 10,8 10,8 v 2 q 0,1 1,2 1,0 0,1 0,1 -1,1 h -2 q 0,0 -8,-7 -9,-6 -9,-7 v -1 h -1 l -1,-1 h -1 v -1 h -1 v -1 h -1 l -1,-1 h -1 v 3 l 1,2 q 1,3 1,5 v 2 h 1 v 1 h 1 v 2 h -6 v -1 h -1 v -1 h -1 v -1 h 1 v -1 h 1 v -1 l -1,-4 q -1,-4 -1,-6 0,-2 0,-6 l 1,-5 h 1 l 4,-2 q 4,-2 5,-3 z"
       id="path519"
       inkscape:connector-curvature="0"
       style="fill:#101010;stroke:#101010" />
    <path
       d="m 564,543 v -1 l 3,-1 q 3,-1 3,-2 0,-1 2,-1 2,0 4,0 3,-1 3,-2 0,-1 2,-2 3,0 2,2 0,2 -1,2 -2,0 -4,0 -1,0 -1,2 0,1 -2,1 -3,0 -7,1 -4,2 -4,1 z"
       id="path521"
       inkscape:connector-curvature="0"
       style="fill:#202020;stroke:#202020" />
    <path
       d="m 938,339 v 3 q 0,0 -2,1 -2,1 -2,2 0,2 -2,3 l -1,1 h -1 v -3 q 0,-3 -1,-3 h -1 v -3 q 0,-2 1,-2 1,0 1,-8 0,-7 1,-7 1,0 1,3 0,3 1,3 1,0 1,3 0,2 -1,2 -1,0 -1,2 0,2 3,2 3,0 3,1 z"
       id="path523"
       inkscape:connector-curvature="0"
       style="fill:#0f0f0f;stroke:#0f0f0f" />
    <path
       d="m 313,142 1,-2 h 1 l 1,-1 q 2,-1 7,-2 5,-1 13,-2 7,-1 9,1 2,0 3,3 0,2 -6,6 -6,3 -14,4 -7,1 -12,-1 -5,-1 -5,-3 1,-2 2,-3 z"
       id="path525"
       inkscape:connector-curvature="0"
       style="fill:#f6f6f6;stroke:#f6f6f6" />
    <path
       d="m 519,564 -1,1 v -1 h -3 v -1 h 1 v -2 h 4 q 3,0 3,-1 0,-1 2,-1 2,0 2,-1 0,-1 2,-1 2,0 2,-1 0,-1 3,0 2,0 0,1 -2,0 -2,1 0,1 -4,2 -3,0 -3,1 0,1 -3,1 -3,0 -3,2 z"
       id="path529"
       inkscape:connector-curvature="0"
       style="fill:#1a1a1a;stroke:#1a1a1a" />
    <path
       d="m 698,239 h 4 q 1,0 1,1 0,2 1,2 0,1 0,1 0,1 0,1 h 1 q 0,0 -7,2 l -6,2 -1,1 q -1,1 -3,1 h -1 q 0,0 0,-1 1,0 -1,-1 -1,0 0,-2 v -1 l 6,-3 q 5,-2 6,-3 z"
       id="path531"
       inkscape:connector-curvature="0"
       style="fill:#0c0c0c;stroke:#0c0c0c" />
    <path
       d="m 870,495 h 2 v 1 h -1 q -1,0 -1,2 -1,2 -3,2 -2,0 -2,1 0,1 -2,1 -2,0 -2,1 0,1 -3,2 l -4,1 h -1 v -1 h -1 v 2 h -2 l -2,1 -1,-1 v -1 h 3 v -1 h 1 v -1 h 3 v -1 q 0,-1 2,-1 2,0 2,-1 0,-1 4,-2 5,-1 5,-2 0,-1 1,-1 1,0 2,-1 z"
       id="path533"
       inkscape:connector-curvature="0"
       style="fill:#1b1b1b;stroke:#1b1b1b" />
    <path
       d="m 530,216 v 5 l 1,-1 v -1 h 2 v 2 q 0,1 -11,5 -11,4 -22,8 l -10,4 v -1 h -1 v -1 h -1 v -2 h 1 v -1 h 1 v -1 h 3 l 18,-8 q 18,-8 19,-8 z"
       id="path535"
       inkscape:connector-curvature="0"
       style="fill:#101010;stroke:#101010" />
    <path
       d="m 636,586 v 1 q 0,0 -1,1 0,1 -2,1 -2,0 -2,1 0,1 -3,1 -3,0 -3,1 0,1 -3,1 -2,0 -2,1 0,1 -4,1 h -4 v -1 h -1 v 1 h -1 v -1 h -1 v 1 h -1 v -1 h -1 v -1 h -1 v -2 h 2 v 2 h 4 q 4,0 4,-1 0,-1 3,-1 3,0 3,-1 0,-1 4,-2 3,0 5,-1 3,0 3,-1 1,0 2,0 z"
       id="path537"
       inkscape:connector-curvature="0"
       style="fill:#1b1b1b;stroke:#1b1b1b" />
    <path
       d="m 506,716 h -1 l -1,-1 -2,-1 h 3 v -2 h 2 v 1 h 1 v -3 h 2 q 2,0 2,-1 0,-1 2,-1 2,0 2,-1 0,-1 2,-1 3,-1 3,-2 0,-1 2,-1 2,0 2,-1 0,-1 2,-1 2,0 2,-1 0,-1 3,-1 2,0 2,-1 0,-1 2,0 2,0 0,1 -2,1 -4,3 -1,0 -4,1 -3,1 -3,2 0,1 -2,1 -2,0 -2,1 0,1 -2,1 -2,0 -2,1 0,1 -2,1 -2,0 -2,1 0,1 -3,3 -4,2 -4,2 z"
       id="path539"
       inkscape:connector-curvature="0"
       style="fill:#191919;stroke:#191919" />
    <path
       d="m 298,427 -1,-1 h -2 v -1 q 0,-1 -1,-1 -1,0 -1,-1 0,-1 -3,-1 -3,0 -3,-1 0,-1 -1,-1 -1,0 -1,-1 0,-1 -2,-1 -2,0 -3,-2 0,-2 -1,-2 -1,-1 1,-2 1,0 2,1 1,1 2,1 1,0 2,1 0,1 0,2 1,1 2,1 2,0 2,1 0,1 2,1 2,0 2,1 0,1 1,1 1,0 1,1 0,1 3,2 3,1 3,3 0,1 -1,1 -1,0 -1,-1 0,-1 -2,-1 z"
       id="path541"
       inkscape:connector-curvature="0"
       style="fill:#1e1e1e;stroke:#1e1e1e" />
    <path
       d="m 912,299 v -1 h 4 q 4,0 4,1 0,1 3,1 3,0 3,1 0,1 1,1 1,0 1,1 0,1 1,1 1,0 1,1 -1,1 -4,0 -2,-1 -2,-2 -1,-1 -7,-1 h -6 v -2 q 1,0 1,-1 z"
       id="path543"
       inkscape:connector-curvature="0"
       style="fill:#191919;stroke:#191919" />
    <path
       d="m 501,567 h 1 v 2 q 0,1 0,0 h -2 q -1,0 -1,1 0,1 -3,1 l -2,1 h -1 l -1,1 h -2 v -2 h 1 l 1,-1 h 2 l 1,-1 1,-1 h 2 q 2,0 3,-1 z"
       id="path545"
       inkscape:connector-curvature="0"
       style="fill:#262626;stroke:#262626" />
    <path
       d="m 846,92 h 1 l 39,20 q 38,20 39,20 h 1 l 1,1 1,1 h 2 l 1,1 1,1 h 2 v 1 h -1 v 1 h -3 l -1,1 -1,1 h -2 q -1,0 -44,18 l -44,18 -1,1 h -1 q -1,1 -1,1 h -1 q -2,0 -29,11 -27,11 -31,9 -3,-2 -3,-3 0,-1 -19,-15 l -18,-13 v -1 q 0,0 -10,-8 l -9,-8 h -2 v -1 h -1 v -1 l -1,-1 v -1 h 2 l 1,-1 2,-1 h 1 q 1,0 1,-1 h 1 l 17,-7 q 16,-8 16,-8 h 2 l 29,-13 q 29,-13 29,-13 h 3 l 1,-1 1,-1 11,-5 q 12,-5 14,-5 2,1 3,1 0,1 1,1 z"
       id="path547"
       inkscape:connector-curvature="0"
       style="fill:#fcfcfc;stroke:#fcfcfc" />
    <path
       d="m 422,708 h 2 q 2,1 2,2 0,1 1,1 1,0 1,1 0,1 2,1 2,0 2,1 v 1 h 1 v 1 h 1 l 1,1 1,1 h 1 v 1 h 1 v 3 h -1 v -1 h -1 v -1 h -2 v -2 h -2 l -2,-1 q -1,0 -1,-1 0,-1 -1,-1 -1,-1 -2,-2 -1,-2 -3,-2 -2,0 -3,-1 v -1 q 0,-1 2,-1 z"
       id="path549"
       inkscape:connector-curvature="0"
       style="fill:#1a1a1a;stroke:#1a1a1a" />
    <path
       d="m 932,442 v -5 h 1 l -1,11 q -1,11 -2,11 h -1 v 5 h -2 v 1 l -1,1 v -3 h 2 v -3 q 0,-3 1,-3 1,0 1,-5 0,-6 1,-6 1,0 1,-4 z"
       id="path551"
       inkscape:connector-curvature="0"
       style="fill:#171717;stroke:#171717" />
    <path
       d="m 701,100 -18,8 h -3 v -3 h -1 v -1 h 2 l 1,-1 1,-1 h 2 l 1,-1 q 2,-1 14,-5 13,-6 16,-6 3,0 3,2 0,2 -18,8 z"
       id="path553"
       inkscape:connector-curvature="0"
       style="fill:#131313;stroke:#131313" />
    <path
       d="m 421,276 1,-2 h 2 l 33,18 q 33,18 35,18 2,1 6,1 4,-1 5,-1 h 1 v 4 q 0,0 1,1 v 1 q 0,0 -5,2 l -4,2 -1,1 h -1 v 2 h -1 l -1,1 h -1 v 1 h 1 v 4 h 2 l 1,-1 h 2 l 19,-10 q 20,-8 21,-9 l 1,-1 h 3 l 1,-1 1,-1 h 1 v 1 l 1,1 1,2 -1,1 -1,1 h -2 l -2,1 q -1,1 -23,11 -22,10 -28,10 -6,2 -13,-3 l -8,-5 h -2 l -1,-1 -1,-1 h -1 v -1 h -1 v -1 h 1 v -1 h 1 v -2 h 3 l 1,1 h 2 v 1 l 4,2 q 4,2 4,2 v 1 h 2 l 1,1 1,1 h 2 v 1 h 1 v -1 h 1 v -5 h -1 v -1 h -1 v -1 h -1 v -1 h -1 q -2,0 -27,-16 -25,-15 -27,-16 -3,-2 -3,-3 -1,-1 -3,-2 l -3,-1 h -2 v -1 h 1 v -1 q 0,-1 1,-1 1,0 2,-3 z"
       id="path555"
       inkscape:connector-curvature="0"
       style="fill:#0b0b0b;stroke:#0b0b0b" />
    <path
       d="m 598,283 1,-1 h 1 v 2 h 5 v 1 h -1 q 0,1 -26,12 l -27,11 -1,1 -1,1 h -3 l -1,-2 -1,-1 v -1 h 1 l 1,-1 1,-1 h 3 l 22,-10 q 22,-10 22,-10 h 2 z"
       id="path557"
       inkscape:connector-curvature="0"
       style="fill:#0f0f0f;stroke:#0f0f0f" />
    <g
       id="g563"
       style="fill:#111111;stroke:#111111">
      <path
         d="m 673,202 h 1 l 15,10 q 15,10 15,11 h -2 l -2,-1 h -4 v 1 l 1,1 v 1 h -1 v -1 h -1 l -1,-1 -1,-1 h -1 q 0,0 -8,-6 l -9,-6 v -1 h -1 v -1 h -1 q 0,0 -1,-1 v -2 q 0,-3 1,-3 z"
         id="path559"
         inkscape:connector-curvature="0" />
      <path
         d="m 488,235 v 1 h 1 v 1 h 1 v 1 q 0,0 -3,2 -3,1 -26,11 l -22,9 v 1 h -1 v 1 h -2 v -2 h 2 v -2 h 1 v -1 h 1 v -1 h -1 l -1,-1 h -1 v -1 l 24,-9 q 23,-10 25,-10 1,-1 2,0 z"
         id="path561"
         inkscape:connector-curvature="0" />
    </g>
    <path
       d="m 515,562 v 2 q -1,0 -1,1 0,1 -3,1 -3,0 -3,1 0,1 -3,1 l -3,1 h -1 v -1 h 1 q 0,0 0,-1 l 2,-1 q 1,0 1,-1 0,-1 2,-1 3,1 4,0 1,-2 2,-2 1,0 2,0 z"
       id="path565"
       inkscape:connector-curvature="0"
       style="fill:#202020;stroke:#202020" />
    <path
       d="m 847,92 v -1 l 40,19 q 40,18 41,19 l 1,1 h 2 l 1,1 1,1 h 1 v 1 l -1,1 v 2 h -1 l -1,-1 -1,-1 h -2 l -1,-1 -1,-1 h -1 q -1,0 -39,-20 z"
       id="path567"
       inkscape:connector-curvature="0"
       style="fill:#1a1a1a;stroke:#1a1a1a" />
    <path
       d="m 907,300 h 4 v 2 h -3 q -2,0 -2,1 0,0 -6,1 -5,1 -5,2 0,1 -2,1 -2,0 -2,1 0,1 -3,2 -4,1 -4,2 0,1 -2,1 -2,0 -2,1 v 1 h -4 v 2 h -2 l -3,-1 h 1 l 1,-1 1,-1 h 1 l 1,-1 2,-1 h 2 q 2,-1 2,-2 0,-1 2,-1 2,0 2,-1 0,-1 2,-1 2,0 2,-1 1,0 7,-3 6,-3 10,-3 z"
       id="path569"
       inkscape:connector-curvature="0"
       style="fill:#181818;stroke:#181818" />
    <path
       d="m 591,281 h 1 v 1 q 0,2 1,2 h 1 q 0,0 -22,10 l -22,10 h -3 l -1,1 -1,1 h -2 l -1,1 -1,1 h -3 l -1,1 q -1,1 -21,9 l -19,10 h -2 l -1,1 h -2 v -4 h -1 v -1 h 1 l 1,-1 h 1 v -2 h 1 l 1,-1 4,-2 q 5,-2 5,-2 h 3 l 1,-1 1,-1 40,-16 q 40,-16 41,-17 z"
       id="path571"
       inkscape:connector-curvature="0"
       style="fill:#ebebeb;stroke:#ebebeb" />
    <path
       d="m 668,251 h 2 q 0,1 -32,15 l -32,14 h -2 l -2,1 -1,1 h -2 l -1,1 -2,1 h -4 v -1 h -1 v -1 h 1 v -1 h 1 l 1,-1 h 2 l 1,-1 1,-1 34,-13 q 35,-13 36,-14 z"
       id="path573"
       inkscape:connector-curvature="0"
       style="fill:#dddddd;stroke:#dddddd" />
    <path
       d="m 419,262 h 2 l 1,1 q 2,1 0,2 -1,1 0,1 v 1 q -1,1 -1,1 v 1 h -1 v 3 h 1 v 1 h 1 v 1 l -1,2 q -1,3 -2,3 -1,0 -1,1 v 1 h -2 q -1,-1 -4,-2 -4,-1 -4,0 v 2 h -1 q -1,1 -1,1 h -1 v -1 h -1 v -1 h -2 v 1 h -1 v -1 h -1 v -2 h -1 v -1 h 1 v -2 h 1 v -1 h 1 l 2,-3 q 2,-3 5,-3 3,-2 4,-2 1,0 1,-2 1,-1 2,-1 1,-1 3,-1 z"
       id="path575"
       inkscape:connector-curvature="0"
       style="fill:#171717;stroke:#171717" />
    <path
       d="m 941,342 -3,-1 v -2 q 1,-1 4,-1 h 3 v -1 q 1,0 3,-1 2,0 2,-1 0,-1 4,-1 5,-1 5,-2 0,-1 2,-1 2,1 -1,2 -4,1 -4,2 0,1 -2,1 -3,0 -3,1 0,1 -2,1 -2,0 -2,1 0,1 -1,1 -2,0 -2,1 0,1 -3,1 z"
       id="path577"
       inkscape:connector-curvature="0"
       style="fill:#1c1c1c;stroke:#1c1c1c" />
    <path
       d="m 703,555 q 2,1 1,1 -1,0 -4,1 -4,1 -4,2 0,1 -2,1 -2,0 -2,1 0,1 -2,1 -2,0 -4,2 -2,1 -4,1 -2,0 3,-3 4,-2 4,-3 0,-1 5,-2 6,-1 6,-1 1,-1 3,-1 z"
       id="path579"
       inkscape:connector-curvature="0"
       style="fill:#212121;stroke:#212121" />
    <path
       d="m 637,587 h -1 v -3 q 1,-1 3,-1 1,0 4,-1 2,0 2,-1 0,-1 3,-1 4,-1 4,-2 0,-1 3,-1 3,0 3,-1 0,-1 4,-2 3,-1 3,-2 0,-1 3,-1 2,0 1,1 -2,0 -2,1 0,1 -2,1 -2,0 -2,1 0,1 -2,1 -2,0 -2,1 0,1 -2,1 -2,0 -2,1 0,1 -1,1 -2,0 -2,1 0,1 -3,1 -3,0 -3,1 0,1 -2,1 -2,0 -2,1 0,1 -2,1 -2,0 -3,1 z"
       id="path581"
       inkscape:connector-curvature="0"
       style="fill:#202020;stroke:#202020" />
  </g>
</svg>
